<?xml version="1.0" encoding="utf-8"?>
<!-- Generator: Adobe Illustrator 23.0.1, SVG Export Plug-In . SVG Version: 6.00 Build 0)  -->
<svg width="225px" height="213px" viewBox="0 0 225 213" version="1.1" xmlns="http://www.w3.org/2000/svg" xmlns:xlink="http://www.w3.org/1999/xlink">
	 viewBox="0 0 225 213" style="enable-background:new 0 0 225 213;" xml:space="preserve">
<style type="text/css">
	.st0{opacity:0.3;fill-rule:evenodd;clip-rule:evenodd;fill-opacity:0.4;enable-background:new    ;}
	.st1{opacity:0.3;fill:#333333;}
	.st2{fill:#333333;}
	.st3{fill:#FFFFFF;}
	.st4{fill:#E2E2E2;}
	.st5{fill:#E21B3C;}
	.st6{fill-rule:evenodd;clip-rule:evenodd;fill:#FFFFFF;}
	.st7{fill:#FFA602;}
	.st8{fill:#26890C;}
	.st9{fill:#1368CE;}
	.st10{fill:#737373;}
</style>
<title>Illustration</title>
<desc>Created with Sketch.</desc>
<g>
	<g id="Symbols">
		<g id="Homepage-hero---purple" transform="translate(-80.000000, -48.000000)">
			<g id="Content" transform="translate(80.000000, 48.000000)">
				<g id="Illustration">
					<ellipse id="Circle" class="st0" cx="111" cy="106.5" rx="107" ry="106.5"/>
				</g>
			</g>
		</g>
	</g>
	<g>
		<g>
			<path class="st1" d="M200.3,140.5H24.5c-2.2,0-4-1.8-4-4V36.8c0-2.2,1.8-4,4-4h175.8c2.2,0,4,1.8,4,4v99.8
				C204.3,138.8,202.5,140.5,200.3,140.5z"/>
			<g>
				<g>
					<g>
						<path class="st2" d="M202.9,138H27.1c-2.2,0-4-1.8-4-4V34.2c0-2.2,1.8-4,4-4h175.8c2.2,0,4,1.8,4,4V134
							C206.9,136.2,205.1,138,202.9,138z"/>
						<rect x="28.2" y="35.2" class="st3" width="173.5" height="95.6"/>
					</g>
					<rect x="42.2" y="39.5" class="st4" width="145.6" height="4.9"/>
					<rect x="81.5" y="49.3" class="st4" width="67" height="38.7"/>
					<g>
						<ellipse class="st4" cx="47.6" cy="68.6" rx="8.2" ry="8.3"/>
						<ellipse class="st4" cx="182.3" cy="68.6" rx="8.2" ry="8.3"/>
					</g>
				</g>
				<g>
					<g>
						<g>
							<g>
								<path class="st5" d="M113.5,108.5V95.9c0-0.9-0.7-1.7-1.7-1.7H32.1c-0.9,0-1.7,0.7-1.7,1.7v12.6c0,0.9,0.7,1.7,1.7,1.7h79.8
									C112.8,110.1,113.5,109.4,113.5,108.5z"/>
							</g>
						</g>
						<polygon class="st6" points="35.4,104.6 38.1,99.7 40.9,104.6 						"/>
					</g>
					<rect x="45.5" y="100.9" class="st6" width="58.8" height="2.6"/>
				</g>
				<g>
					<g>
						<g>
							<g>
								<path class="st7" d="M113.5,126.9v-12.6c0-0.9-0.7-1.7-1.7-1.7H32.1c-0.9,0-1.7,0.7-1.7,1.7v12.6c0,0.9,0.7,1.7,1.7,1.7
									h79.8C112.8,128.5,113.5,127.8,113.5,126.9z"/>
							</g>
						</g>
						<ellipse class="st6" cx="38.1" cy="120.5" rx="2.8" ry="2.8"/>
					</g>
					<rect x="45.5" y="119.3" class="st6" width="52" height="2.6"/>
				</g>
				<g>
					<g>
						<g>
							<g>
								<path class="st8" d="M199.5,126.9v-12.6c0-0.9-0.7-1.7-1.7-1.7h-79.8c-0.9,0-1.7,0.7-1.7,1.7v12.6c0,0.9,0.7,1.7,1.7,1.7
									h79.8C198.7,128.5,199.5,127.8,199.5,126.9z"/>
							</g>
						</g>
						<rect x="121.3" y="117.8" class="st6" width="5.4" height="5.4"/>
					</g>
					<rect x="131.5" y="119.3" class="st6" width="58.6" height="2.6"/>
				</g>
				<g>
					<g>
						<g>
							<g>
								<path class="st9" d="M199.5,108.5V95.9c0-0.9-0.7-1.7-1.7-1.7h-79.8c-0.9,0-1.7,0.7-1.7,1.7v12.6c0,0.9,0.7,1.7,1.7,1.7
									h79.8C198.7,110.1,199.5,109.4,199.5,108.5z"/>
							</g>
						</g>
						<polygon class="st6" points="124.1,98.9 127.3,102.1 124.1,105.3 120.8,102.1 						"/>
					</g>
					<rect x="131.5" y="100.9" class="st6" width="42" height="2.6"/>
				</g>
			</g>
		</g>
		<g>
			<g>
				<path class="st1" d="M98.1,95.5l-95.3,20c-1.8,0.4-2.9,2.1-2.5,3.9L13,179.8c0.4,1.8,2.1,2.9,3.9,2.5l95.3-20
					c1.8-0.4,2.9-2.1,2.5-3.9L102,98C101.7,96.2,99.9,95.1,98.1,95.5z"/>
				<g>
					<g>
						<g>
							<g>
								<path class="st2" d="M100.3,92.2L5,112.2c-1.8,0.4-2.9,2.1-2.5,3.9l12.7,60.5c0.4,1.8,2.1,2.9,3.9,2.5l95.3-20
									c1.8-0.4,2.9-2.1,2.5-3.9l-12.7-60.5C103.8,93,102.1,91.8,100.3,92.2z"/>
								
									<rect x="15.5" y="104.6" transform="matrix(0.9788 -0.205 0.205 0.9788 -26.3778 15.4951)" class="st3" width="92.2" height="60.8"/>
							</g>
						</g>
						<circle class="st10" cx="12.7" cy="145.5" r="2.8"/>
					</g>
					<g>
						<g>
							<g>
								<path class="st5" d="M59.2,132.1l-4.7-22.2c-0.2-0.9-1.1-1.5-2-1.3l-37.3,7.8c-0.9,0.2-1.5,1.1-1.3,2l4.7,22.2
									c0.2,0.9,1.1,1.5,2,1.3l37.3-7.8C58.8,133.9,59.4,133,59.2,132.1z"/>
							</g>
						</g>
						<polygon class="st6" points="32.9,130.2 35.7,121.3 41.9,128.3 						"/>
					</g>
					<g>
						<g>
							<g>
								<path class="st9" d="M103,122.9l-4.7-22.2c-0.2-0.9-1.1-1.5-2-1.3l-37.3,7.8c-0.9,0.2-1.5,1.1-1.3,2l4.7,22.2
									c0.2,0.9,1.1,1.5,2,1.3l37.3-7.8C102.6,124.7,103.2,123.8,103,122.9z"/>
							</g>
						</g>
						<polygon class="st6" points="79.4,111.4 85.1,115.1 81.4,120.7 75.7,117 						"/>
					</g>
					<g>
						<g>
							<g>
								<path class="st7" d="M65.2,160.8l-4.7-22.2c-0.2-0.9-1.1-1.5-2-1.3l-37.3,7.8c-0.9,0.2-1.5,1.1-1.3,2l4.7,22.2
									c0.2,0.9,1.1,1.5,2,1.3l37.3-7.8C64.8,162.6,65.4,161.7,65.2,160.8z"/>
							</g>
						</g>
						<circle class="st6" cx="42.6" cy="153.9" r="4.2"/>
					</g>
					<g>
						<g>
							<g>
								<path class="st8" d="M109,151.6l-4.7-22.2c-0.2-0.9-1.1-1.5-2-1.3l-37.3,7.8c-0.9,0.2-1.5,1.1-1.3,2l4.7,22.2
									c0.2,0.9,1.1,1.5,2,1.3l37.3-7.8C108.6,153.4,109.2,152.5,109,151.6z"/>
							</g>
						</g>
						<rect x="82.4" y="140.7" transform="matrix(0.9788 -0.205 0.205 0.9788 -27.8435 20.791)" class="st6" width="8" height="8"/>
					</g>
				</g>
			</g>
			<g>
				<path class="st1" d="M219.2,95.5l-44.8-14.7c-1.7-0.6-3.6,0.4-4.2,2.1l-26.6,80.8c-0.6,1.7,0.4,3.6,2.1,4.2l44.8,14.7
					c1.7,0.6,3.6-0.4,4.2-2.1l26.6-80.8C221.8,98,220.9,96.1,219.2,95.5z"/>
				<g>
					<g>
						<path class="st2" d="M222.5,93.8l-44.8-14.7c-1.7-0.6-3.6,0.4-4.2,2.1L147,162c-0.6,1.7,0.4,3.6,2.1,4.2l44.8,14.7
							c1.7,0.6,3.6-0.4,4.2-2.1L224.6,98C225.2,96.3,224.2,94.4,222.5,93.8z"/>
						
							<rect x="163.1" y="87.8" transform="matrix(0.95 0.3123 -0.3123 0.95 49.282 -51.8462)" class="st3" width="46.7" height="80.2"/>
						<circle class="st10" cx="172.7" cy="169.7" r="2.6"/>
					</g>
					<g>
						<g>
							<path class="st8" d="M204.3,135l-15.4-5.1c-0.9-0.3-1.8,0.2-2.1,1.1l-10.1,30.8c-0.3,0.9,0.2,1.8,1.1,2.1l15.4,5.1
								c0.9,0.3,1.8-0.2,2.1-1.1l10.1-30.8C205.7,136.2,205.2,135.3,204.3,135z"/>
						</g>
						
							<rect x="187.2" y="145.7" transform="matrix(0.95 0.3123 -0.3123 0.95 56.262 -52.1905)" class="st6" width="7.7" height="7.7"/>
					</g>
					<g>
						<g>
							<path class="st7" d="M183.4,128.1L168,123c-0.9-0.3-1.8,0.2-2.1,1.1l-10.1,30.8c-0.3,0.9,0.2,1.8,1.1,2.1l15.4,5.1
								c0.9,0.3,1.8-0.2,2.1-1.1l10.1-30.8C184.8,129.3,184.3,128.4,183.4,128.1z"/>
						</g>
						<circle class="st6" cx="170.1" cy="142.6" r="4"/>
					</g>
					<g>
						<g>
							<path class="st9" d="M216.4,98.3L201,93.2c-0.9-0.3-1.8,0.2-2.1,1.1l-10.1,30.8c-0.3,0.9,0.2,1.8,1.1,2.1l15.4,5.1
								c0.9,0.3,1.8-0.2,2.1-1.1l10.1-30.8C217.8,99.5,217.3,98.6,216.4,98.3z"/>
						</g>
						<polygon class="st6" points="204.5,108.5 207.5,114.2 201.7,117.1 198.7,111.3 						"/>
					</g>
					<g>
						<g>
							<path class="st5" d="M195.5,91.4l-15.4-5.1c-0.9-0.3-1.8,0.2-2.1,1.1l-10.1,30.8c-0.3,0.9,0.2,1.8,1.1,2.1l15.4,5.1
								c0.9,0.3,1.8-0.2,2.1-1.1l10.1-30.8C196.8,92.6,196.3,91.7,195.5,91.4z"/>
						</g>
						<polygon class="st6" points="176.8,108.2 183.4,102.2 185.1,111 						"/>
					</g>
				</g>
			</g>
		</g>
	</g>
</g>
</svg>
